<svg width="130" height="13" viewBox="0 0 130 13" fill="none" xmlns="http://www.w3.org/2000/svg">
<path d="M5.79588 12.3407C4.75054 12.3407 3.78521 12.0847 2.89988 11.5727C2.02521 11.05 1.32654 10.3513 0.803875 9.47666C0.291875 8.59133 0.035875 7.626 0.035875 6.58066C0.035875 5.53533 0.291875 4.57533 0.803875 3.70066C1.32654 2.81533 2.02521 2.11666 2.89988 1.60466C3.78521 1.082 4.75054 0.820663 5.79588 0.820663C6.84121 0.820663 7.80121 1.082 8.67588 1.60466C9.56121 2.11666 10.2599 2.81533 10.7719 3.70066C11.2945 4.57533 11.5559 5.53533 11.5559 6.58066C11.5559 7.626 11.2945 8.59133 10.7719 9.47666C10.2599 10.3513 9.56121 11.05 8.67588 11.5727C7.80121 12.0847 6.84121 12.3407 5.79588 12.3407ZM5.79588 11.3487C6.64921 11.3487 7.43321 11.1353 8.14788 10.7087C8.86254 10.2713 9.42788 9.69 9.84388 8.96466C10.2705 8.22866 10.4839 7.434 10.4839 6.58066C10.4839 5.72733 10.2705 4.938 9.84388 4.21266C9.42788 3.47666 8.86254 2.89533 8.14788 2.46866C7.43321 2.03133 6.64921 1.81266 5.79588 1.81266C4.94254 1.81266 4.15321 2.03133 3.42788 2.46866C2.71321 2.89533 2.14254 3.47666 1.71588 4.21266C1.29988 4.938 1.09188 5.72733 1.09188 6.58066C1.09188 7.434 1.29988 8.22866 1.71588 8.96466C2.14254 9.69 2.71321 10.2713 3.42788 10.7087C4.15321 11.1353 4.94254 11.3487 5.79588 11.3487ZM5.79588 9.65266C5.00654 9.65266 4.37721 9.41266 3.90788 8.93266C3.43854 8.45266 3.18788 7.85 3.15588 7.12466L3.13988 6.56466L3.15588 6.00466C3.18788 5.27933 3.43854 4.67666 3.90788 4.19666C4.37721 3.71666 5.00654 3.47666 5.79588 3.47666C6.35054 3.47666 6.81988 3.56733 7.20388 3.74866C7.59854 3.93 7.89188 4.15933 8.08388 4.43666C8.27588 4.70333 8.37721 4.97533 8.38788 5.25266C8.38788 5.35933 8.35588 5.44466 8.29188 5.50866C8.22788 5.57266 8.14254 5.60466 8.03588 5.60466H7.53988C7.44387 5.60466 7.36921 5.578 7.31588 5.52466C7.26254 5.47133 7.21454 5.39133 7.17188 5.28466C7.07588 5.03933 6.91588 4.85266 6.69188 4.72466C6.47854 4.59666 6.17988 4.53266 5.79588 4.53266C5.28388 4.53266 4.91588 4.682 4.69188 4.98066C4.47854 5.26866 4.36121 5.61533 4.33988 6.02066L4.32388 6.56466L4.33988 7.10866C4.36121 7.514 4.47854 7.866 4.69188 8.16466C4.91588 8.45266 5.28388 8.59666 5.79588 8.59666C6.17988 8.59666 6.47854 8.53266 6.69188 8.40466C6.91588 8.27666 7.07588 8.09 7.17188 7.84466C7.21454 7.738 7.26254 7.658 7.31588 7.60466C7.36921 7.55133 7.44387 7.52466 7.53988 7.52466H8.03588C8.14254 7.52466 8.22788 7.55666 8.29188 7.62066C8.35588 7.68466 8.38788 7.77 8.38788 7.87666C8.37721 8.154 8.27588 8.43133 8.08388 8.70866C7.89188 8.97533 7.59854 9.19933 7.20388 9.38066C6.81988 9.562 6.35054 9.65266 5.79588 9.65266ZM13.5583 12.1807C13.4516 12.1807 13.3609 12.1487 13.2863 12.0847C13.2223 12.01 13.1903 11.9193 13.1903 11.8127V11.3327C13.1903 11.0873 13.3236 10.8527 13.5903 10.6287L17.0783 7.15666C17.8676 6.48466 18.4116 5.93533 18.7103 5.50866C19.0089 5.082 19.1583 4.62866 19.1583 4.14866C19.1583 3.51933 18.9823 3.02866 18.6303 2.67666C18.2783 2.314 17.7663 2.13266 17.0943 2.13266C16.4543 2.13266 15.9476 2.31933 15.5743 2.69266C15.2009 3.066 14.9716 3.56733 14.8863 4.19666C14.8649 4.314 14.8116 4.40466 14.7263 4.46866C14.6409 4.53266 14.5556 4.56466 14.4703 4.56466H13.7023C13.6063 4.56466 13.5263 4.53266 13.4622 4.46866C13.3983 4.40466 13.3663 4.33 13.3663 4.24466C13.3876 3.67933 13.5369 3.13533 13.8143 2.61266C14.1023 2.07933 14.5236 1.64733 15.0783 1.31666C15.6329 0.97533 16.3049 0.804664 17.0943 0.804664C18.2889 0.804664 19.1849 1.11933 19.7823 1.74866C20.3903 2.36733 20.6943 3.15666 20.6943 4.11666C20.6943 4.78866 20.5289 5.39666 20.1983 5.94066C19.8783 6.474 19.3716 7.03933 18.6783 7.63666L15.5263 10.8367H20.5663C20.6836 10.8367 20.7743 10.8687 20.8383 10.9327C20.9023 10.9967 20.9343 11.0873 20.9343 11.2047V11.8127C20.9343 11.9193 20.8969 12.01 20.8223 12.0847C20.7583 12.1487 20.6729 12.1807 20.5663 12.1807H13.5583ZM26.806 12.3407C25.43 12.3407 24.422 11.9407 23.782 11.1407C23.1527 10.33 22.8167 9.274 22.774 7.97266L22.758 6.59666L22.774 5.17266C22.806 3.882 23.142 2.83666 23.782 2.03666C24.4327 1.226 25.4407 0.820663 26.806 0.820663C28.182 0.820663 29.19 1.226 29.83 2.03666C30.4807 2.83666 30.822 3.882 30.854 5.17266C30.8647 5.47133 30.87 5.946 30.87 6.59666C30.87 7.226 30.8647 7.68466 30.854 7.97266C30.8113 9.274 30.47 10.33 29.83 11.1407C29.2007 11.9407 28.1927 12.3407 26.806 12.3407ZM26.806 11.0127C27.6273 11.0127 28.246 10.7407 28.662 10.1967C29.078 9.65266 29.2967 8.88466 29.318 7.89266C29.3287 7.58333 29.334 7.14066 29.334 6.56466C29.334 5.978 29.3287 5.54066 29.318 5.25266C29.2967 4.27133 29.0727 3.50866 28.646 2.96466C28.23 2.41 27.6167 2.13266 26.806 2.13266C25.9953 2.13266 25.382 2.41 24.966 2.96466C24.55 3.50866 24.3313 4.27133 24.31 5.25266L24.294 6.56466L24.31 7.89266C24.3313 8.88466 24.55 9.65266 24.966 10.1967C25.382 10.7407 25.9953 11.0127 26.806 11.0127ZM33.027 12.1807C32.9203 12.1807 32.8297 12.1487 32.755 12.0847C32.691 12.01 32.659 11.9193 32.659 11.8127V11.3327C32.659 11.0873 32.7923 10.8527 33.059 10.6287L36.547 7.15666C37.3363 6.48466 37.8803 5.93533 38.179 5.50866C38.4777 5.082 38.627 4.62866 38.627 4.14866C38.627 3.51933 38.451 3.02866 38.099 2.67666C37.747 2.314 37.235 2.13266 36.563 2.13266C35.923 2.13266 35.4163 2.31933 35.043 2.69266C34.6697 3.066 34.4403 3.56733 34.355 4.19666C34.3337 4.314 34.2803 4.40466 34.195 4.46866C34.1097 4.53266 34.0243 4.56466 33.939 4.56466H33.171C33.075 4.56466 32.995 4.53266 32.931 4.46866C32.867 4.40466 32.835 4.33 32.835 4.24466C32.8563 3.67933 33.0057 3.13533 33.283 2.61266C33.571 2.07933 33.9923 1.64733 34.547 1.31666C35.1017 0.97533 35.7737 0.804664 36.563 0.804664C37.7577 0.804664 38.6537 1.11933 39.251 1.74866C39.859 2.36733 40.163 3.15666 40.163 4.11666C40.163 4.78866 39.9977 5.39666 39.667 5.94066C39.347 6.474 38.8403 7.03933 38.147 7.63666L34.995 10.8367H40.035C40.1523 10.8367 40.243 10.8687 40.307 10.9327C40.371 10.9967 40.403 11.0873 40.403 11.2047V11.8127C40.403 11.9193 40.3657 12.01 40.291 12.0847C40.227 12.1487 40.1417 12.1807 40.035 12.1807H33.027ZM46.2748 12.3407C44.8988 12.3407 43.8908 11.9407 43.2508 11.1407C42.6214 10.33 42.2854 9.274 42.2428 7.97266L42.2268 6.59666L42.2428 5.17266C42.2748 3.882 42.6108 2.83666 43.2508 2.03666C43.9014 1.226 44.9094 0.820663 46.2748 0.820663C47.6508 0.820663 48.6588 1.226 49.2987 2.03666C49.9494 2.83666 50.2908 3.882 50.3228 5.17266C50.3334 5.47133 50.3388 5.946 50.3388 6.59666C50.3388 7.226 50.3334 7.68466 50.3228 7.97266C50.2801 9.274 49.9387 10.33 49.2987 11.1407C48.6694 11.9407 47.6614 12.3407 46.2748 12.3407ZM46.2748 11.0127C47.0961 11.0127 47.7148 10.7407 48.1308 10.1967C48.5468 9.65266 48.7654 8.88466 48.7868 7.89266C48.7974 7.58333 48.8028 7.14066 48.8028 6.56466C48.8028 5.978 48.7974 5.54066 48.7868 5.25266C48.7654 4.27133 48.5414 3.50866 48.1148 2.96466C47.6988 2.41 47.0854 2.13266 46.2748 2.13266C45.4641 2.13266 44.8508 2.41 44.4348 2.96466C44.0188 3.50866 43.8001 4.27133 43.7788 5.25266L43.7628 6.56466L43.7788 7.89266C43.8001 8.88466 44.0188 9.65266 44.4348 10.1967C44.8508 10.7407 45.4641 11.0127 46.2748 11.0127ZM53.1038 12.1807C52.9971 12.1807 52.9118 12.1487 52.8478 12.0847C52.7838 12.01 52.7518 11.9193 52.7518 11.8127V1.34866C52.7518 1.242 52.7838 1.15666 52.8478 1.09266C52.9118 1.018 52.9971 0.980663 53.1038 0.980663H53.9038C54.0104 0.980663 54.0958 1.018 54.1598 1.09266C54.2238 1.15666 54.2558 1.242 54.2558 1.34866V10.8367H59.5998C59.7171 10.8367 59.8078 10.874 59.8718 10.9487C59.9464 11.0127 59.9838 11.098 59.9838 11.2047V11.8127C59.9838 11.9193 59.9464 12.01 59.8718 12.0847C59.7971 12.1487 59.7064 12.1807 59.5998 12.1807H53.1038ZM63.8165 12.3407C63.2938 12.3407 62.8085 12.234 62.3605 12.0207C61.9232 11.8073 61.5712 11.5193 61.3045 11.1567C61.0485 10.7833 60.9205 10.3727 60.9205 9.92466C60.9205 9.22066 61.2085 8.64466 61.7845 8.19666C62.3605 7.74866 63.1445 7.45 64.1365 7.30066L66.5365 6.96466V6.50066C66.5365 5.402 65.9018 4.85266 64.6325 4.85266C64.1418 4.85266 63.7472 4.954 63.4485 5.15666C63.1498 5.34866 62.9312 5.578 62.7925 5.84466C62.7498 5.95133 62.7018 6.026 62.6485 6.06866C62.6058 6.10066 62.5418 6.11666 62.4565 6.11666H61.8325C61.7365 6.11666 61.6512 6.08466 61.5765 6.02066C61.5125 5.946 61.4805 5.86066 61.4805 5.76466C61.4805 5.51933 61.5925 5.23666 61.8165 4.91666C62.0512 4.586 62.4085 4.30333 62.8885 4.06866C63.3685 3.82333 63.9552 3.70066 64.6485 3.70066C65.8432 3.70066 66.6965 3.978 67.2085 4.53266C67.7312 5.08733 67.9925 5.78066 67.9925 6.61266V11.8127C67.9925 11.9193 67.9552 12.01 67.8805 12.0847C67.8165 12.1487 67.7312 12.1807 67.6245 12.1807H66.9205C66.8138 12.1807 66.7285 12.1487 66.6645 12.0847C66.6005 12.01 66.5685 11.9193 66.5685 11.8127V11.1087C66.3338 11.4607 65.9925 11.754 65.5445 11.9887C65.0965 12.2233 64.5205 12.3407 63.8165 12.3407ZM64.1365 11.1727C64.8405 11.1727 65.4165 10.9433 65.8645 10.4847C66.3125 10.026 66.5365 9.35933 66.5365 8.48466V8.03666L64.6645 8.30866C63.8965 8.41533 63.3152 8.59666 62.9205 8.85266C62.5258 9.10866 62.3285 9.42866 62.3285 9.81266C62.3285 10.25 62.5045 10.586 62.8565 10.8207C63.2192 11.0553 63.6458 11.1727 64.1365 11.1727ZM73.1574 12.3407C72.4214 12.3407 71.7974 12.2233 71.2854 11.9887C70.784 11.7433 70.4107 11.466 70.1654 11.1567C69.92 10.8473 69.7974 10.5913 69.7974 10.3887C69.7974 10.282 69.8347 10.202 69.9094 10.1487C69.984 10.0847 70.064 10.0527 70.1494 10.0527H70.8214C70.8854 10.0527 70.9334 10.0633 70.9654 10.0847C71.008 10.106 71.0614 10.154 71.1254 10.2287C71.3707 10.5273 71.6427 10.762 71.9414 10.9327C72.2507 11.1033 72.6614 11.1887 73.1734 11.1887C73.7494 11.1887 74.208 11.082 74.5494 10.8687C74.9014 10.6553 75.0774 10.346 75.0774 9.94066C75.0774 9.674 75.0027 9.46066 74.8534 9.30066C74.704 9.14066 74.4534 8.99666 74.1014 8.86866C73.76 8.74066 73.248 8.602 72.5654 8.45266C71.6374 8.25 70.9814 7.95666 70.5974 7.57266C70.2134 7.18866 70.0214 6.69266 70.0214 6.08466C70.0214 5.69 70.1387 5.31133 70.3734 4.94866C70.608 4.57533 70.9547 4.27666 71.4134 4.05266C71.8827 3.818 72.4374 3.70066 73.0774 3.70066C73.7494 3.70066 74.32 3.81266 74.7894 4.03666C75.2694 4.26066 75.6267 4.522 75.8614 4.82066C76.1067 5.11933 76.2294 5.37 76.2294 5.57266C76.2294 5.66866 76.192 5.74866 76.1174 5.81266C76.0534 5.87666 75.9734 5.90866 75.8774 5.90866H75.2694C75.12 5.90866 75.0134 5.85 74.9494 5.73266C74.768 5.53 74.6134 5.37533 74.4854 5.26866C74.368 5.15133 74.192 5.05533 73.9574 4.98066C73.7227 4.89533 73.4294 4.85266 73.0774 4.85266C72.5547 4.85266 72.1547 4.96466 71.8774 5.18866C71.6 5.402 71.4614 5.69 71.4614 6.05266C71.4614 6.27666 71.52 6.46866 71.6374 6.62866C71.7547 6.778 71.9787 6.922 72.3094 7.06066C72.64 7.18866 73.1307 7.322 73.7814 7.46066C74.7947 7.674 75.5094 7.978 75.9254 8.37266C76.352 8.76733 76.5654 9.274 76.5654 9.89266C76.5654 10.3513 76.432 10.7673 76.1654 11.1407C75.9094 11.514 75.52 11.8073 74.9974 12.0207C74.4854 12.234 73.872 12.3407 73.1574 12.3407ZM78.8184 12.1807C78.7117 12.1807 78.621 12.1487 78.5464 12.0847C78.4824 12.01 78.4504 11.9193 78.4504 11.8127V1.18866C78.4504 1.07133 78.4824 0.980664 78.5464 0.916663C78.621 0.852663 78.7117 0.820663 78.8184 0.820663H79.5224C79.629 0.820663 79.7144 0.857997 79.7784 0.932664C79.853 0.996664 79.8904 1.082 79.8904 1.18866V11.8127C79.8904 11.9193 79.853 12.01 79.7784 12.0847C79.7144 12.1487 79.629 12.1807 79.5224 12.1807H78.8184ZM85.5898 12.3407C84.5018 12.3407 83.6324 12.0047 82.9818 11.3327C82.3311 10.65 81.9738 9.722 81.9098 8.54866L81.8938 8.00466L81.9098 7.47666C81.9738 6.32466 82.3311 5.40733 82.9818 4.72466C83.6324 4.042 84.5018 3.70066 85.5898 3.70066C86.7631 3.70066 87.6698 4.074 88.3098 4.82066C88.9604 5.56733 89.2858 6.58066 89.2858 7.86066V8.14866C89.2858 8.25533 89.2484 8.346 89.1737 8.42066C89.1098 8.48466 89.0244 8.51666 88.9178 8.51666H83.3658V8.66066C83.3978 9.354 83.6111 9.946 84.0058 10.4367C84.4004 10.9273 84.9231 11.1727 85.5738 11.1727C86.0751 11.1727 86.4804 11.0767 86.7898 10.8847C87.1098 10.682 87.3498 10.474 87.5098 10.2607C87.6058 10.1327 87.6804 10.058 87.7338 10.0367C87.7871 10.0047 87.8778 9.98866 88.0058 9.98866H88.7098C88.8058 9.98866 88.8858 10.0153 88.9498 10.0687C89.0244 10.122 89.0618 10.1913 89.0618 10.2767C89.0618 10.5113 88.9178 10.794 88.6298 11.1247C88.3418 11.4553 87.9311 11.7433 87.3978 11.9887C86.8751 12.2233 86.2724 12.3407 85.5898 12.3407ZM87.8298 7.42866V7.38066C87.8298 6.634 87.6271 6.026 87.2218 5.55666C86.8164 5.08733 86.2724 4.85266 85.5898 4.85266C84.8964 4.85266 84.3524 5.08733 83.9578 5.55666C83.5631 6.026 83.3658 6.634 83.3658 7.38066V7.42866H87.8298ZM94.0793 12.3407C93.3433 12.3407 92.7193 12.2233 92.2073 11.9887C91.7059 11.7433 91.3326 11.466 91.0872 11.1567C90.8419 10.8473 90.7193 10.5913 90.7193 10.3887C90.7193 10.282 90.7566 10.202 90.8313 10.1487C90.9059 10.0847 90.9859 10.0527 91.0713 10.0527H91.7433C91.8073 10.0527 91.8553 10.0633 91.8873 10.0847C91.9299 10.106 91.9833 10.154 92.0473 10.2287C92.2926 10.5273 92.5646 10.762 92.8633 10.9327C93.1726 11.1033 93.5833 11.1887 94.0953 11.1887C94.6713 11.1887 95.1299 11.082 95.4713 10.8687C95.8233 10.6553 95.9993 10.346 95.9993 9.94066C95.9993 9.674 95.9246 9.46066 95.7753 9.30066C95.6259 9.14066 95.3753 8.99666 95.0233 8.86866C94.6819 8.74066 94.1699 8.602 93.4873 8.45266C92.5593 8.25 91.9033 7.95666 91.5193 7.57266C91.1353 7.18866 90.9433 6.69266 90.9433 6.08466C90.9433 5.69 91.0606 5.31133 91.2953 4.94866C91.5299 4.57533 91.8766 4.27666 92.3353 4.05266C92.8046 3.818 93.3593 3.70066 93.9993 3.70066C94.6713 3.70066 95.2419 3.81266 95.7113 4.03666C96.1913 4.26066 96.5486 4.522 96.7833 4.82066C97.0286 5.11933 97.1513 5.37 97.1513 5.57266C97.1513 5.66866 97.1139 5.74866 97.0393 5.81266C96.9753 5.87666 96.8953 5.90866 96.7993 5.90866H96.1913C96.0419 5.90866 95.9353 5.85 95.8713 5.73266C95.6899 5.53 95.5353 5.37533 95.4073 5.26866C95.2899 5.15133 95.1139 5.05533 94.8793 4.98066C94.6446 4.89533 94.3513 4.85266 93.9993 4.85266C93.4766 4.85266 93.0766 4.96466 92.7993 5.18866C92.5219 5.402 92.3832 5.69 92.3832 6.05266C92.3832 6.27666 92.4419 6.46866 92.5593 6.62866C92.6766 6.778 92.9006 6.922 93.2313 7.06066C93.5619 7.18866 94.0526 7.322 94.7033 7.46066C95.7166 7.674 96.4313 7.978 96.8473 8.37266C97.2739 8.76733 97.4873 9.274 97.4873 9.89266C97.4873 10.3513 97.3539 10.7673 97.0873 11.1407C96.8313 11.514 96.4419 11.8073 95.9193 12.0207C95.4073 12.234 94.7939 12.3407 94.0793 12.3407ZM102.668 12.1807C102.348 12.1807 102.14 12.0313 102.044 11.7327L98.6203 1.46066C98.6096 1.42866 98.6043 1.38066 98.6043 1.31666C98.6043 1.22066 98.6363 1.14066 98.7003 1.07666C98.7643 1.01266 98.8443 0.980663 98.9403 0.980663H100.364C100.503 0.980663 100.615 1.018 100.7 1.09266C100.786 1.16733 100.844 1.24733 100.876 1.33266L103.548 9.52466L106.236 1.33266C106.258 1.24733 106.311 1.16733 106.396 1.09266C106.482 1.018 106.594 0.980663 106.732 0.980663H108.172C108.258 0.980663 108.332 1.01266 108.396 1.07666C108.471 1.14066 108.508 1.22066 108.508 1.31666L108.476 1.46066L105.068 11.7327C104.962 12.0313 104.754 12.1807 104.444 12.1807H102.668ZM110.585 12.1807C110.478 12.1807 110.388 12.1433 110.313 12.0687C110.238 11.994 110.201 11.9033 110.201 11.7967V1.38066C110.201 1.26333 110.233 1.16733 110.297 1.09266C110.372 1.018 110.468 0.980663 110.585 0.980663H114.873C116.164 0.980663 117.177 1.28466 117.913 1.89266C118.649 2.50066 119.017 3.386 119.017 4.54866C119.017 5.70066 118.649 6.57533 117.913 7.17266C117.177 7.75933 116.164 8.05266 114.873 8.05266H112.521V11.7967C112.521 11.914 112.484 12.01 112.409 12.0847C112.334 12.1487 112.238 12.1807 112.121 12.1807H110.585ZM114.793 6.26066C115.412 6.26066 115.881 6.11666 116.201 5.82866C116.532 5.53 116.697 5.098 116.697 4.53266C116.697 3.978 116.537 3.546 116.217 3.23666C115.908 2.92733 115.433 2.77266 114.793 2.77266H112.489V6.26066H114.793ZM121.148 12.1807C121.041 12.1807 120.95 12.1433 120.876 12.0687C120.801 11.994 120.764 11.9033 120.764 11.7967V1.38066C120.764 1.26333 120.796 1.16733 120.86 1.09266C120.934 1.018 121.03 0.980663 121.148 0.980663H122.396C122.598 0.980663 122.753 1.07133 122.86 1.25266L127.436 8.35666V1.38066C127.436 1.26333 127.468 1.16733 127.532 1.09266C127.606 1.018 127.702 0.980663 127.82 0.980663H129.196C129.313 0.980663 129.409 1.018 129.484 1.09266C129.558 1.16733 129.596 1.26333 129.596 1.38066V11.7807C129.596 11.898 129.558 11.994 129.484 12.0687C129.409 12.1433 129.318 12.1807 129.212 12.1807H127.948C127.734 12.1807 127.574 12.09 127.468 11.9087L122.908 4.96466V11.7967C122.908 11.9033 122.87 11.994 122.796 12.0687C122.732 12.1433 122.641 12.1807 122.524 12.1807H121.148Z" fill="#AFB5C0"/>
</svg>
